<?xml version="1.0" standalone="no"?>
<!DOCTYPE svg PUBLIC "-//W3C//DTD SVG 20010904//EN"
 "http://www.w3.org/TR/2001/REC-SVG-20010904/DTD/svg10.dtd">
<svg version="1.0" xmlns="http://www.w3.org/2000/svg"
 width="90.000000pt" height="90.000000pt" viewBox="0 0 90.000000 90.000000"
 preserveAspectRatio="xMidYMid meet">
<metadata>
Created by potrace 1.11, written by Peter Selinger 2001-2013
</metadata>
<g transform="translate(0.000000,90.000000) scale(0.100000,-0.100000)"
fill="#000000" stroke="none">
<path d="M154 825 c-10 -25 5 -96 30 -152 24 -52 83 -118 166 -186 l45 -38
-35 -27 c-124 -95 -195 -197 -206 -295 -6 -50 -5 -55 15 -62 27 -8 41 1 41 29
0 12 7 46 16 76 13 42 30 67 87 125 40 40 87 82 105 94 l33 23 54 -42 c92 -71
92 -70 -28 -70 -103 0 -107 -1 -132 -28 l-25 -27 157 -3 c147 -2 159 -4 176
-23 9 -12 17 -25 17 -30 0 -5 -85 -9 -189 -9 -115 0 -192 -4 -196 -10 -3 -5
-8 -19 -10 -30 -4 -19 1 -20 205 -20 l209 0 3 -28 c2 -21 8 -27 28 -27 23 0
25 3 25 50 -1 114 -74 208 -282 364 -152 115 -217 184 -238 253 -8 29 -15 62
-15 74 0 32 -45 47 -56 19z"/>
<path d="M697 833 c-4 -3 -7 -17 -7 -30 l0 -23 -209 0 -209 0 7 -27 7 -28 192
-3 c106 -1 192 -6 192 -10 0 -4 -7 -18 -16 -30 -15 -21 -21 -22 -176 -22
l-162 0 29 -30 c28 -30 30 -30 134 -30 l106 -1 -43 -38 -43 -38 26 -17 c30
-20 26 -22 107 54 75 71 132 201 113 260 -6 19 -35 27 -48 13z"/>
</g>
</svg>
